<?xml version="1.0" encoding="UTF-8"?>
<!-- Generator: Adobe Illustrator 24.2.3, SVG Export Plug-In . SVG Version: 6.00 Build 0)  -->
<svg xmlns="http://www.w3.org/2000/svg" xmlns:xlink="http://www.w3.org/1999/xlink" version="1.1" id="Capa_1" x="0px" y="0px" viewBox="0 0 512.094 512.094" style="enable-background:new 0 0 512.094 512.094;" xml:space="preserve" width="512" height="512">
<g>
	<g>
		<g>
			<path style="fill:#33CCCC;" d="M190.714,267.039H76.381c-14.56-0.564-14.617-21.411,0-22c0,0,114.333,0,114.333,0     C205.274,245.604,205.33,266.45,190.714,267.039z"/>
		</g>
		<g>
			<path style="fill:#33CCCC;" d="M435.714,332.373H321.381c-14.56-0.564-14.617-21.411,0-22c0,0,114.333,0,114.333,0     C450.274,310.937,450.33,331.783,435.714,332.373z"/>
		</g>
		<g>
			<path style="fill:#33CCCC;" d="M435.714,201.706H321.381c-6.075,0-11-4.925-11-11v-65.333c0-6.075,4.925-11,11-11h114.333     c6.075,0,11,4.925,11,11v65.333C446.714,196.781,441.789,201.706,435.714,201.706z M332.381,179.706h92.333v-43.333h-92.333     V179.706z"/>
		</g>
	</g>
	<g>
		<path d="M190.714,310.373H76.381c-14.56,0.564-14.617,21.411,0,22c0,0,114.333,0,114.333,0    C205.274,331.808,205.33,310.962,190.714,310.373z"/>
		<path d="M501.047,49.039h-196c-19.371-0.109-37.883,9.539-49,25.379c-11.117-15.828-29.626-25.496-49-25.379c0,0-196,0-196,0    c-6.075,0-11,4.925-11,11c-0.147,47.428,0.106,352.6,0,392c0,6.075,4.925,11,11,11c122.125-0.089,367.904,0.064,490.001,0    c6.075,0,10.999-4.925,10.999-11c-0.258-37.703,0.186-346.282-0.001-392C512.047,53.964,507.122,49.039,501.047,49.039z     M278.177,82.167c7.177-7.176,16.72-11.128,26.871-11.128h185v304.667h-185c-26.52,0-37.282,12.968-38,13.558V109.039    C267.047,98.892,271.001,89.347,278.177,82.167z M22.047,71.039h185c10.15,0,19.693,3.952,26.868,11.125    c7.179,7.183,11.132,16.728,11.132,26.875v280.224c-0.719-0.591-12-13.557-38-13.557h-185V71.039z M22.047,397.706h185    c20.43-0.425,38.422,17.58,38,38c0,0,0,5.333,0,5.333h-223V397.706z M490.047,441.039h-223v-5.333    c-0.42-20.423,17.572-38.424,38-38c0,0,185,0,185,0V441.039z"/>
		<path d="M321.381,267.039h114.333c14.56-0.564,14.617-21.411,0-22c0,0-114.333,0-114.333,0    C306.82,245.604,306.764,266.45,321.381,267.039z"/>
		<path d="M190.714,114.373H76.381c-6.075,0-11,4.925-11,11v65.333c0,6.075,4.925,11,11,11h114.333c6.075,0,11-4.925,11-11v-65.333    C201.714,119.298,196.789,114.373,190.714,114.373z M179.714,179.706H87.381v-43.333h92.333V179.706z"/>
	</g>
</g>















</svg>
