<svg height="511pt" viewBox="-40 0 511 511.99942" width="511pt" xmlns="http://www.w3.org/2000/svg"><path d="m153.359375 111.53125c2.054687.996094 4.507813.996094 6.5625 0 2.679687-1.304688 65.570313-32.441406 59.324219-78.089844-3.113282-22.753906-19.207032-32.121094-33.230469-33.296875-11.476563-.960937-22.285156 2.964844-29.375 10-7.089844-7.035156-17.894531-10.960937-29.375-10-14.027344 1.179688-30.121094 10.542969-33.234375 33.296875-6.242188 45.648438 56.648438 76.785156 59.328125 78.089844zm-44.460937-76.054688c2.339843-17.105468 14.5-19.953124 19.621093-20.382812.691407-.058594 1.375-.085938 2.058594-.085938 8.78125 0 16.855469 4.683594 18.902344 11.222657.972656 3.09375 3.917969 5.257812 7.160156 5.257812s6.1875-2.164062 7.160156-5.257812c2.207031-7.046875 11.417969-11.9375 20.957031-11.136719 5.125.429688 17.285157 3.277344 19.625 20.382812 2.414063 17.648438-11.03125 33.429688-22.734374 43.5625-9.710938 8.410157-19.921876 14.46875-25.007813 17.265626-5.085937-2.796876-15.292969-8.855469-25.003906-17.265626-11.707031-10.132812-25.152344-25.914062-22.738281-43.5625zm0 0"/><path d="m295.144531 341.273438c.113281 1.105468.238281 2.210937.371094 3.3125 4.417969 36.097656 21.871094 70.023437 49.140625 95.523437 2.988281 2.789063 7.8125 2.628906 10.605469-.355469 2.828125-3.027344 2.671875-7.773437-.355469-10.605468-24.703125-23.097657-40.507812-53.777344-44.496094-86.386719-.125-1.003907-.234375-2.007813-.339844-3.011719-3.90625-38.253906-21.828124-63.390625-32.164062-74.964844-2.757812-3.089844-7.5-3.359375-10.59375-.601562-3.089844 2.757812-3.355469 7.5-.597656 10.59375 9.125 10.21875 24.953125 32.453125 28.429687 66.496094zm0 0"/><path d="m429.628906 499.019531-52.707031-49.285156c-3.023437-2.828125-7.773437-2.667969-10.601563.355469-2.832031 3.027344-2.671874 7.773437.355469 10.605468l38.820313 36.300782h-175.050782c-12.257812-11.710938-26.351562-20.429688-57.289062-29.203125-6.269531-1.777344-12.679688-4.03125-19.046875-6.695313-29.878906-12.503906-56.253906-33.210937-76.277344-59.875l-4.269531-5.683594c-2.488281-3.3125-7.191406-3.980468-10.503906-1.492187-3.3125 2.484375-3.980469 7.1875-1.492188 10.5l4.269532 5.6875c21.625 28.796875 50.144531 51.167969 82.480468 64.703125 6.917969 2.894531 13.898438 5.347656 20.746094 7.292969 23.03125 6.527343 38.304688 12.855469 53.023438 27.574219 1.40625 1.40625 3.3125 2.195312 5.304687 2.195312h197.113281c3.078125 0 5.847656-1.882812 6.976563-4.75 1.132812-2.863281.398437-6.128906-1.851563-8.230469zm0 0"/><path d="m18.703125 322.488281c-5.074219-6.757812-4.035156-16.371093 2.367187-21.886719 6.734376-5.796874 16.929688-5.035156 22.726563 1.695313l29.089844 33.773437c2.703125 3.140626 7.441406 3.492188 10.578125.789063 3.140625-2.703125 3.492187-7.441406.789062-10.578125l-29.089844-33.777344-14.652343-17.011718c-3.539063-4.109376-5.265625-9.347657-4.863281-14.757813.40625-5.40625 2.890624-10.335937 7-13.875 4.105468-3.539063 9.347656-5.265625 14.757812-4.863281 5.40625.402344 10.335938 2.886718 13.875 7l37.542969 43.585937c2.667969 3.097657 7.480469 3.457031 10.578125.789063 3.140625-2.703125 3.492187-7.441406.789062-10.578125l-43.5625-50.578125c-7.304687-8.480469-6.347656-21.324219 2.132813-28.632813 4.113281-3.539062 9.359375-5.257812 14.761719-4.863281 5.40625.40625 10.332031 2.890625 13.871093 7l55.207031 64.09375c2.664063 3.09375 7.480469 3.457031 10.578126.785156 3.140624-2.703125 3.492187-7.4375.789062-10.578125l-55.207031-64.09375-42.167969-48.957031c-3.539062-4.109375-5.265625-9.351562-4.863281-14.761719.402343-5.40625 2.886719-10.332031 6.996093-13.875 12.007813-10.335937 24.429688-1.535156 29.261719 2.78125 2.65625 2.472657 95.324219 88.644531 138.078125 132.277344 2.898438 2.960937 7.648438 3.007813 10.609375.109375 2.957031-2.898438 3.007813-7.648438.105469-10.609375-5.320312-5.433594-11.414062-11.519531-18-18.015625l-1.296875-107.5625c-.039063-5.890625-2.746094-11.328125-7.417969-14.914062-4.675781-3.585938-10.628906-4.789063-16.328125-3.300782-22.730469 5.9375-40.285156 23.785156-45.851562 46.601563l-2.445313 8.730469c-26.265625-24.8125-46.851562-43.945313-47.289062-44.355469-.035156-.03125-.066406-.058594-.097656-.089844-15.902344-14.257813-34.722657-15.417969-49.117188-3.019531-7.144531 6.15625-11.46875 14.722656-12.167969 24.128906-.703125 9.402344 2.300781 18.519531 8.457031 25.664062l23.320313 27.074219c-7.191406.695313-13.988281 3.570313-19.574219 8.382813-7.148437 6.15625-11.46875 14.722656-12.167968 24.128906-.269532 3.625.015624 7.203125.816406 10.648438-9.085938-.449219-17.847656 2.542968-24.765625 8.5-7.144531 6.15625-11.464844 14.722656-12.167969 24.128906-.597656 8.054687 1.527344 15.898437 6.015625 22.472656-5.523437.867188-10.878906 3.230469-15.421875 7.140625-12.363281 10.648437-14.375 29.214844-4.574219 42.261719l36.816407 49.027344c2.453124 3.269531 7.234374 3.949218 10.503906 1.492187 3.3125-2.488281 3.980468-7.191406 1.492187-10.503906zm163.664063-172.863281c.023437-.085938.046874-.175781.070312-.265625 4.226562-17.496094 17.671875-31.195313 35.089844-35.742187 1.628906-.425782 2.832031.25 3.40625.6875.570312.4375 1.535156 1.425781 1.546875 3.148437l1.113281 92.570313c-14.765625-14.347657-30.8125-29.683594-45.839844-43.9375zm0 0"/></svg>