<svg id="Layer_1" enable-background="new 0 0 512.017 512.017" height="512" viewBox="0 0 512.017 512.017" width="512" xmlns="http://www.w3.org/2000/svg"><g><path d="m488.005 226.189-68.106-45.778c2.253-4.681 4.237-9.519 5.908-14.458 22.208-65.625-12.746-137.072-77.92-159.268-31.438-10.707-65.192-8.495-95.043 6.225-31.932 15.746-55.826 44.721-65.435 78.982-21.746-11.455-49.412-2.343-60.61 19.308l-3.436 6.642c-4.455 8.613 8.867 15.506 13.322 6.893l3.436-6.642c8.52-16.47 28.809-20.522 44.008-10.974-1.961 12.964-1.872 26.047.162 38.794-5.746 3.668-10.46 8.818-13.683 15.089-9.86 19.188-2.499 42.961 16.411 52.991 9.052 4.804 19.746 5.78 29.485 2.725 9.978-3.132 18.129-10.026 22.953-19.413 14.234-27.7-9.343-62.341-40.819-56.935-1.107-8.505-1.232-17.156-.342-25.784l80.917 42.644c14.494 7.639 20.111 26.364 12.579 40.924l-35.396 68.428c-3.765 7.277-10.378 12.778-18.145 15.093-21.132 6.296-42.263 12.592-63.395 18.888-1.952.581-3.584 1.933-4.52 3.741l-95.712 185.029c-.239.463-.648.786-1.125.888l-31.654 6.774c-.745.157-1.494-.258-1.812-1.019l-12.548-29.996c-.677-1.611 2.373-7.662 4.015-8.1 20.351-4.059 27.131-16.499 18.533-35.639-.717-1.973 6.105-15.336 8.112-15.871 20.351-4.057 27.131-16.499 18.533-35.638-.715-1.977 6.102-15.336 8.112-15.873 20.313-3.986 27.134-16.596 18.532-35.639-.183-.505-.147-1.064.098-1.538l19.826-38.327c.927-1.792 1.093-3.881.461-5.796l-20.879-63.299c-2.569-7.792-1.879-16.445 1.896-23.741l13.633-26.356c4.456-8.612-8.868-15.506-13.322-6.891l-13.633 26.354c-5.616 10.856-6.644 23.734-2.818 35.332l19.892 60.305-18.378 35.527c-2.162 4.178-2.482 9.112-.879 13.537l3.871 10.694c.302 1.154-.081 1.957-1.148 2.409l-11.014 2.935c-10.893 2.903-22.189 24.879-18.354 35.472l3.871 10.694c.302 1.154-.081 1.958-1.148 2.41l-11.012 2.935c-10.896 2.901-22.191 24.878-18.356 35.471l3.871 10.694c.302 1.155-.081 1.958-1.148 2.41l-11.012 2.935c-10.385 2.765-18.07 18.637-13.992 28.384l12.547 29.995c3.051 7.298 11.08 11.546 18.789 9.898l31.652-6.774c4.879-1.042 9.001-4.199 11.311-8.662l94.25-182.201 23.449-7.348v90.116c-.188 14.052 11.538 26.16 25.667 26.17l199.396.127h.018c14.231 0 25.964-11.636 26.156-25.946v-24.234c.13-9.694-14.87-9.903-14.998-.201v24.234c-.083 6.148-5.087 11.147-11.159 11.147-.002 0-.005 0-.007 0l-57.252-.036v-78.025c0-4.143-3.357-7.5-7.5-7.5h-67.188c-4.143 0-7.5 3.357-7.5 7.5v77.973l-59.957-.038c-6.058-.004-10.754-5.285-10.679-10.97v-94.804l21.893-6.143c11.65-3.472 21.559-11.7 27.184-22.575l12.742-24.632c7.034 1.438 14.165 2.261 21.312 2.458 4.487 15.066 20.423 24.825 35.925 21.718 8.245-1.652 15.354-6.447 20.018-13.501 9.56-14.459 5.701-34.031-8.602-43.631-6.917-4.643-15.225-6.299-23.399-4.659-12.359 2.477-22.364 12.657-24.714 25.044-4.465-.172-8.921-.621-13.342-1.344l15.457-29.881s22.119-14.808 29.065-19.391l108.53 73.723v76.028c-.127 9.414 14.039 10.087 14.171.201v-66.226c11.904 8.243 30.285 4.917 38.249-7.157 7.927-12.019 4.712-28.197-7.127-36.034zm-282.931-71.373c20.671 0 30.951 26.104 17.295 40.987-9.625-11.891-16.799-25.95-20.797-40.719 1.167-.09 2.335-.179 3.502-.268zm3.968 48.309c-5.102.902-10.329.092-14.992-2.384-11.698-6.205-16.229-20.957-10.099-32.885 1.09-2.121 2.458-4.029 4.048-5.697 4.384 14.673 11.451 28.582 21.043 40.966zm97.237 134.405h52.188v70.516l-52.188-.033zm40.925-86.287c-2.444 3.696-6.156 6.206-10.453 7.067-6.454 1.29-13.621-1.936-16.982-7.6 10.24-1.036 20.363-3.336 30.102-6.88-.279 2.569-1.147 5.113-2.667 7.413zm-16.542-25.31c4.951-1.087 10.161.462 13.915 3.854-8.359 3.028-17.037 5.005-25.817 5.934.395-.933 1.779-7.566 11.902-9.788zm-36.012-76.187c-2.538-2.203-5.351-4.158-8.443-5.787l-85.186-44.894c7.846-31.455 29.357-58.354 58.455-72.703 26.253-12.947 55.934-14.893 83.573-5.479 57.359 19.534 88.109 82.455 68.547 140.26-1.243 3.675-2.699 7.275-4.309 10.792l-58.375-39.237c-8.539-5.655-19.656-5.674-28.361-.022zm187.96 104.219c-3.12 4.73-10.049 6.677-15.111 3.323l-129.089-86.869c-2.512-1.69-5.791-1.704-8.318-.037l-19.877 13.115c-.103-7.767-2.191-15.382-6.008-22.084l24.557-16.183c3.651-2.372 8.31-2.383 11.826-.054l139.091 93.491c4.997 3.308 6.311 10.17 2.929 15.298z"/><path d="m61.001 471.199c3.475 1.805 8.299.29 10.11-3.204l77.92-150.214c1.907-3.677.473-8.203-3.204-10.11-3.673-1.908-8.204-.474-10.11 3.204l-77.92 150.214c-1.908 3.676-.473 8.202 3.204 10.11z"/></g></svg>