<?xml version="1.0" encoding="UTF-8"?>
<!-- Generator: Adobe Illustrator 26.4.1, SVG Export Plug-In . SVG Version: 6.00 Build 0)  -->
<svg xmlns="http://www.w3.org/2000/svg" xmlns:xlink="http://www.w3.org/1999/xlink" version="1.1" id="Capa_1" x="0px" y="0px" viewBox="0 0 511.959 511.959" style="enable-background:new 0 0 511.959 511.959;" xml:space="preserve" width="512" height="512">
<g>
	<path d="M443.022,88.332c-44.477-44.807-103.618-69.483-166.528-69.483c-62.911,0-122.052,24.676-166.529,69.483   C65.51,133.116,41.027,192.655,41.027,255.98c0,37.185,8.767,74.1,25.342,107.061C58.513,394.561,36.4,420.827,6.583,433.77   c-6.686,2.707-8.788,11.987-3.924,17.311c19.471,22.389,47.579,35.229,77.118,35.229c26.954,0,52.551-10.612,71.626-29.398   c37.456,23.71,80.499,36.199,125.091,36.199c62.91,0,122.051-24.676,166.528-69.483c44.455-44.785,68.938-104.323,68.938-167.648   S487.477,133.116,443.022,88.332z M276.493,471.111c-43.302,0-84.991-12.991-120.56-37.569l-0.002,0.003   c-4.621-3.201-11-2.412-14.68,1.979c-15.338,18.295-37.745,28.787-61.475,28.787c-18.349,0-35.996-6.33-50.142-17.694   c30.119-17.951,51.775-47.915,59.122-82.747c0.58-2.751,0.067-5.472-1.229-7.732c-16.026-30.648-24.5-65.269-24.5-100.157   c0-118.623,95.761-215.131,213.466-215.131c117.705,0,213.466,96.507,213.466,215.131S394.199,471.111,276.493,471.111z"/>
	<g>
		<g id="favorite">
			<path style="fill:#33CCCC;" d="M276.493,367.797c-7.967,0-15.933-2.897-22.298-8.693     c-55.417-49.022-95.445-84.449-95.445-130.935c0-39.089,30.62-69.709,69.709-69.709c17.327,0,34.597,6.481,48.035,17.907     c13.436-11.427,30.707-17.907,48.034-17.907c39.089,0,69.709,30.62,69.709,69.709c0,46.486-40.029,81.914-95.447,130.937     C292.425,364.9,284.459,367.797,276.493,367.797z M228.459,180.459c-27.199,0-47.709,20.51-47.709,47.709     c0,34.893,31.83,64.749,88.087,114.516l0.142,0.127c4.282,3.923,10.743,3.925,15.027,0l0.143-0.127     c56.258-49.767,88.088-79.623,88.088-114.516c0-27.199-20.511-47.709-47.709-47.709c-12.95,0-26.434,5.506-36.067,14.728     c-6.71,6.426-17.224,6.426-23.936-0.001C254.892,185.965,241.409,180.459,228.459,180.459z"/>
		</g>
	</g>
</g>















</svg>
