<?xml version="1.0" encoding="UTF-8"?>
<!-- Generator: Adobe Illustrator 26.5.0, SVG Export Plug-In . SVG Version: 6.00 Build 0)  -->
<svg xmlns="http://www.w3.org/2000/svg" xmlns:xlink="http://www.w3.org/1999/xlink" version="1.1" id="Capa_1" x="0px" y="0px" viewBox="0 0 512 512" style="enable-background:new 0 0 512 512;" xml:space="preserve" width="512" height="512">
<g>
	<g>
		<path style="fill:#33CCCC;" d="M222.96,208.067h-28.973c-6.075,0-11-4.925-11-11s4.925-11,11-11h28.973c6.075,0,11,4.925,11,11    S229.036,208.067,222.96,208.067z"/>
	</g>
	<g>
		<path style="fill:#33CCCC;" d="M222.96,147.071h-28.973c-6.075,0-11-4.925-11-11s4.925-11,11-11h28.973c6.075,0,11,4.925,11,11    S229.036,147.071,222.96,147.071z"/>
	</g>
	<g>
		<path style="fill:#33CCCC;" d="M117.234,208.067H88.261c-6.075,0-11-4.925-11-11s4.925-11,11-11h28.973c6.075,0,11,4.925,11,11    S123.31,208.067,117.234,208.067z"/>
	</g>
	<g>
		<path style="fill:#33CCCC;" d="M117.234,147.071H88.261c-6.075,0-11-4.925-11-11s4.925-11,11-11h28.973c6.075,0,11,4.925,11,11    S123.31,147.071,117.234,147.071z"/>
	</g>
	<g>
		<path style="fill:#33CCCC;" d="M311.912,188.752c-1.794,0-3.592-0.438-5.228-1.322c-3.556-1.921-5.771-5.637-5.771-9.678V26.279    c0-14.474,11.774-26.249,26.248-26.249h158.59C500.225,0.03,512,11.805,512,26.279v109.792c0,14.474-11.775,26.249-26.249,26.249    H355.528l-37.586,24.631C316.117,188.148,314.018,188.752,311.912,188.752z M327.161,22.03c-2.343,0-4.248,1.906-4.248,4.249    v131.112l23.303-15.271c1.792-1.174,3.887-1.8,6.029-1.8h133.506c2.343,0,4.249-1.906,4.249-4.249V26.279    c0-2.343-1.906-4.249-4.249-4.249H327.161z"/>
	</g>
	<g>
		<path d="M300.73,225.71c-6.08,0-11,4.93-11,11v9.22h-39v-95.12c0-52.31-42.55-94.87-94.86-94.87C103.55,55.94,61,98.5,61,150.81    v95.12H22v-9.22c0-6.07-4.92-11-11-11s-11,4.93-11,11v61.51c0,41.47,16.26,80.57,45.78,110.09c26.89,26.9,61.73,42.78,99.08,45.38    v36.28H71.61c-6.07,0-11,4.93-11,11c0,6.08,4.93,11,11,11h168.51c6.07,0,11-4.92,11-11c0-6.07-4.93-11-11-11h-73.26v-36.28    c37.35-2.6,72.19-18.48,99.09-45.38c29.52-29.52,45.78-68.62,45.78-110.09v-61.51C311.73,230.64,306.8,225.71,300.73,225.71z     M83,150.81c0-40.18,32.68-72.87,72.87-72.87c40.17,0,72.86,32.69,72.86,72.87v96.14H83V150.81z M83,268.95h145.73v29.27    c0,40.18-32.69,72.87-72.86,72.87c-40.19,0-72.87-32.69-72.87-72.87V268.95z M289.73,298.22c0,73.81-60.05,133.86-133.87,133.86    C82.05,432.08,22,372.03,22,298.22v-30.29h39v30.29c0,52.31,42.55,94.87,94.87,94.87c52.31,0,94.86-42.56,94.86-94.87v-30.29h39    V298.22z"/>
	</g>
</g>















</svg>
