<svg id="Layer_1" enable-background="new 0 0 512 512" height="512" viewBox="0 0 512 512" width="512" xmlns="http://www.w3.org/2000/svg"><g><path d="m477.739 266.335c.008-.14.021-.278.021-.419v-43.521c0-122.628-99.489-222.395-221.779-222.395-39.834 0-78.929 10.762-113.058 31.12-8.328 4.969-.644 17.848 7.686 12.883 31.806-18.974 68.244-29.003 105.372-29.003 114.018 0 206.778 93.037 206.778 207.396v15.333c-5.464-5.059-12.136-8.826-19.53-10.821 1.058-103.65-82.391-192.278-187.248-192.278-104.665 0-188.508 88.595-187.248 192.22-7.383 1.956-14.055 5.677-19.531 10.687v-15.141c0-29.401 6.037-57.828 17.943-84.489 11.502-25.757 27.869-48.578 48.645-67.829 7.113-6.59-3.083-17.595-10.195-11.002-22.269 20.634-39.813 45.099-52.146 72.715-12.771 28.599-19.247 59.082-19.247 90.605v43.947c-19.295 2.677-34.202 19.271-34.202 39.291v42.266c0 20.072 14.986 36.699 34.354 39.309 2.798 23.082 22.497 41.029 46.322 41.029 25.737 0 46.676-20.938 46.676-46.676v-109.591c0-24.709-19.302-44.983-43.618-46.565-.932-94.932 76.616-175.776 172.247-175.776 95.762 0 172.984 80.832 172.248 175.761-24.411 1.481-43.82 21.802-43.82 46.58v109.592c0 25.737 20.938 46.676 46.676 46.676 23.813 0 43.505-17.93 46.317-40.998 19.486-2.503 34.598-19.185 34.598-39.341v-42.267c0-20.039-14.938-36.647-34.261-39.298zm-462.739 81.565v-42.267c0-11.653 8.122-21.439 19-24.011v90.288c-10.878-2.572-19-12.357-19-24.01zm97.352-75.929v109.592c0 17.466-14.21 31.676-31.676 31.676s-31.676-14.211-31.676-31.677v-109.591c0-17.466 14.21-31.676 31.676-31.676s31.676 14.21 31.676 31.676zm350.408 109.591c0 17.466-14.209 31.676-31.675 31.676h-.001c-17.466 0-31.675-14.21-31.675-31.676v-109.591c0-17.466 14.21-31.676 31.676-31.676s31.675 14.21 31.675 31.676zm34.24-33.662c0 11.738-8.241 21.582-19.24 24.066v-90.399c10.999 2.484 19.24 12.328 19.24 24.067z"/><path d="m347.004 252.193h-16.748v-38.145c0-40.944-33.312-74.255-74.256-74.255s-74.256 33.311-74.256 74.255v38.145h-16.748c-9.642 0-17.485 7.845-17.485 17.486v51.095c0 29.053 11.376 56.363 32.031 76.901 13.611 13.532 30.143 23.013 48.15 27.861v39.215h-24.068c-13.026 0-23.624 10.598-23.624 23.624s10.598 23.625 23.624 23.625h104.752c13.026 0 23.624-10.598 23.624-23.624s-10.598-23.624-23.624-23.624h-24.068v-39.292c46.106-12.642 80.182-55.37 80.182-105.797v-49.983c-.001-9.642-7.844-17.487-17.486-17.487zm-30.004 236.183c0 4.755-3.869 8.624-8.624 8.624h-104.752c-4.755 0-8.624-3.869-8.624-8.624s3.869-8.624 8.624-8.624h104.752c4.755 0 8.624 3.869 8.624 8.624zm-47.692-23.624h-26.615v-36.294c4.381.534 8.821.806 13.303.806.212 0 .426-.001.639-.002 4.288-.025 8.515-.311 12.674-.829v36.319zm80.181-145.089c0 50.726-41.891 94.304-92.941 94.599-51.04.27-94.037-42.417-94.037-93.487v-51.095c0-1.371 1.115-2.486 2.485-2.486h16.748v53.581c0 40.944 33.312 74.255 74.256 74.255 8.91 0 17.642-1.572 25.952-4.672 9.086-3.391 3.843-17.442-5.244-14.055-6.627 2.473-13.594 3.727-20.708 3.727-32.674 0-59.256-26.582-59.256-59.255v-106.726c0-32.673 26.582-59.255 59.256-59.255s59.256 26.582 59.256 59.255v106.726c0 12.276-3.736 24.064-10.806 34.09-5.588 7.926 6.671 16.569 12.26 8.645 8.861-12.568 13.546-27.346 13.546-42.734v-53.581h16.748c1.37 0 2.485 1.115 2.485 2.486z"/><path d="m256.655 299.095c-12.246 0-12.266 19.031 0 19.031 12.245 0 12.266-19.031 0-19.031z"/><path d="m256.655 337.718c-12.246 0-12.266 19.031 0 19.031 12.245.001 12.266-19.031 0-19.031z"/><path d="m286.169 318.718c-12.246 0-12.266 19.031 0 19.031 12.246.001 12.266-19.031 0-19.031z"/></g></svg>