<?xml version="1.0" encoding="iso-8859-1"?>
<!-- Generator: Adobe Illustrator 27.2.0, SVG Export Plug-In . SVG Version: 6.00 Build 0)  -->
<svg version="1.1" id="Capa_1" xmlns="http://www.w3.org/2000/svg" xmlns:xlink="http://www.w3.org/1999/xlink" x="0px" y="0px"
	 viewBox="0 0 512 512" style="enable-background:new 0 0 512 512;" xml:space="preserve">
<g>
	<g>
		<path d="M305,446.667h-65.333c-6.075,0-11-4.925-11-11V321.334c0-6.075,4.925-11,11-11H305c6.075,0,11,4.925,11,11v114.333
			C316,441.742,311.075,446.667,305,446.667z M250.666,424.667H294v-92.333h-43.334V424.667z"/>
	</g>
	<path d="M388.419,258.53L214.778,84.888c-2.063-2.063-4.861-3.222-7.778-3.222s-5.715,1.159-7.778,3.222l-62.888,62.888V109
		c0-6.075-4.925-11-11-11H60c-6.075,0-11,4.925-11,11v126.11L3.222,280.888c-4.295,4.296-4.295,11.261,0,15.557
		c2.148,2.148,4.963,3.222,7.778,3.222c1.841,0,3.679-0.468,5.333-1.387V501c0,6.075,4.925,11,11,11h343v-22h-185V321.334
		c0-6.075-4.925-11-11-11H92.666c-6.075,0-11,4.925-11,11V490H38.333V276.89L207,108.223l165.863,165.864
		c4.296,4.296,11.261,4.296,15.557,0C392.715,269.791,392.715,262.826,388.419,258.53z M103.666,332.334h59.667V490h-59.667V332.334
		z M71,120h43.333v49.776L71,213.11V120z"/>
	<path style="fill:#33CCCC;" d="M512,125.334c0-13.41-6.96-31.769-40.115-43.078C460.38,78.332,446.666,71.285,446.666,60
		c0-11.947,9.72-21.667,21.667-21.667c5.781,0,11.221,2.255,15.317,6.351c4.296,4.296,11.261,4.295,15.556-0.002
		c4.296-4.296,4.295-11.261-0.001-15.556c-5.588-5.587-12.422-9.467-19.872-11.395V11c0-6.075-4.925-11-11-11s-11,4.925-11,11v6.739
		c-18.77,4.889-32.667,21.982-32.667,42.261c0,13.41,6.96,31.768,40.116,43.078C476.286,107.002,490,114.048,490,125.334
		C490,137.28,480.28,147,468.333,147c-14.256,0-26.405-7.626-26.683-7.802c-5.08-3.294-11.873-1.863-15.19,3.209
		c-3.325,5.085-1.899,11.902,3.186,15.227c0.581,0.38,12.012,7.745,27.688,10.411v6.289c0,6.075,4.925,11,11,11s11-4.925,11-11
		v-6.739C498.103,162.705,512,145.613,512,125.334z"/>
	<g>
		<path style="fill:#33CCCC;" d="M435.666,512h-65.333c-6.075,0-11-4.925-11-11V359.398H305c-4.449,0-8.46-2.68-10.163-6.791
			c-1.703-4.11-0.762-8.842,2.384-11.988l98-98c4.296-4.296,11.261-4.296,15.557,0l98,98c3.146,3.146,4.087,7.878,2.384,11.988
			c-1.703,4.11-5.713,6.791-10.163,6.791h-54.333V501C446.666,507.075,441.742,512,435.666,512z M381.333,490h43.333V348.398
			c0-6.075,4.925-11,11-11h38.777L403,265.954l-71.444,71.444h38.777c6.075,0,11,4.925,11,11V490z"/>
	</g>
</g>
<g>
</g>
<g>
</g>
<g>
</g>
<g>
</g>
<g>
</g>
<g>
</g>
<g>
</g>
<g>
</g>
<g>
</g>
<g>
</g>
<g>
</g>
<g>
</g>
<g>
</g>
<g>
</g>
<g>
</g>
</svg>
