<svg id="Capa_1" enable-background="new 0 0 512 512" height="512" viewBox="0 0 512 512" width="512" xmlns="http://www.w3.org/2000/svg"><g><g id="Page-1_31_"><g id="_x30_32---House-Sign-Sale"><path id="Shape_72_" d="m25.6 119.467h8.533v366.933c0 14.138 11.462 25.6 25.6 25.6h34.133c14.138 0 25.6-11.461 25.6-25.6v-366.933h76.8v17.067h-34.133c-14.139 0-25.6 11.462-25.6 25.6v324.266c0 14.138 11.462 25.6 25.6 25.6h324.267c14.138 0 25.6-11.461 25.6-25.6v-324.267c0-14.139-11.461-25.6-25.6-25.6h-34.133v-17.067h34.133c14.138 0 25.6-11.462 25.6-25.6v-34.133c0-14.138-11.461-25.6-25.6-25.6h-34.133v-8.533c0-4.713-3.821-8.533-8.533-8.533-4.713 0-8.533 3.821-8.533 8.533v8.533h-221.868v-8.533c0-4.713-3.821-8.533-8.533-8.533-4.713 0-8.533 3.821-8.533 8.533v8.533h-76.8v-8.533c0-14.138-11.462-25.6-25.6-25.6h-34.134c-14.138 0-25.6 11.462-25.6 25.6v8.533h-8.533c-14.138 0-25.6 11.462-25.6 25.6v34.133c0 14.139 11.462 25.601 25.6 25.601zm460.8 34.133c4.713 0 8.533 3.821 8.533 8.533v324.267c0 4.713-3.82 8.533-8.533 8.533h-324.267c-4.713 0-8.533-3.82-8.533-8.533v-324.267c0-4.713 3.821-8.533 8.533-8.533h34.133v25.6c0 4.713 3.821 8.533 8.533 8.533 4.713 0 8.533-3.82 8.533-8.533v-25.6h221.868v25.6c0 4.713 3.821 8.533 8.533 8.533 4.713 0 8.533-3.82 8.533-8.533v-25.6zm-51.2-17.067h-221.867v-17.067h221.867zm51.2-85.333c4.713 0 8.533 3.821 8.533 8.533v34.133c0 4.713-3.82 8.533-8.533 8.533h-34.133v-51.199zm-51.2 0v51.2h-221.867v-51.2zm-238.933 0v51.2h-76.8v-51.2zm-145.067-25.6c0-4.713 3.821-8.533 8.533-8.533h34.133c4.713 0 8.533 3.821 8.533 8.533v460.8c0 4.713-3.821 8.533-8.533 8.533h-34.133c-4.713 0-8.533-3.82-8.533-8.533zm-34.133 34.133c0-4.713 3.821-8.533 8.533-8.533h8.533v51.2h-8.533c-4.713 0-8.533-3.821-8.533-8.533z"/><circle id="Oval_11_" clip-rule="evenodd" cx="76.8" cy="76.8" fill-rule="evenodd" r="8.533"/><path id="Path_81_" clip-rule="evenodd" d="m221.867 409.6c10.419 0 17.067 5.052 17.067 8.533 0 4.713 3.821 8.533 8.533 8.533 4.713 0 8.533-3.82 8.533-8.533 0-14.353-14.993-25.6-34.133-25.6s-34.133 11.247-34.133 25.6 14.993 25.6 34.133 25.6c10.419 0 17.067 5.052 17.067 8.533s-6.647 8.533-17.067 8.533-17.067-5.052-17.067-8.533c0-4.713-3.821-8.533-8.533-8.533s-8.533 3.82-8.533 8.533c0 14.353 14.993 25.6 34.133 25.6s34.133-11.246 34.133-25.599-14.993-25.6-34.133-25.6c-10.419 0-17.067-5.052-17.067-8.533 0-3.482 6.647-8.534 17.067-8.534z" fill-rule="evenodd"/><path id="Shape_71_" d="m306.662 398.071c-1.245-3.339-4.433-5.552-7.996-5.552s-6.751 2.214-7.996 5.552l-25.6 68.267c-1.067 2.857-.529 6.065 1.411 8.418 1.94 2.352 4.988 3.491 7.996 2.987 3.007-.504 5.517-2.575 6.584-5.431l5.598-14.942h24.013l5.598 14.942c1.244 3.34 4.432 5.555 7.996 5.555 1.022-.004 2.036-.185 2.995-.538 2.121-.793 3.84-2.397 4.778-4.459s1.018-4.411.222-6.532zm-13.602 42.249 5.606-14.95 5.606 14.95z"/><path id="Path_80_" clip-rule="evenodd" d="m384 460.8h-25.6v-59.733c0-4.713-3.821-8.533-8.533-8.533-4.713 0-8.533 3.82-8.533 8.533v68.267c0 4.713 3.821 8.533 8.533 8.533h34.133c4.713 0 8.533-3.821 8.533-8.533 0-4.713-3.82-8.534-8.533-8.534z" fill-rule="evenodd"/><path id="Path_79_" clip-rule="evenodd" d="m409.6 392.533c-4.713 0-8.533 3.82-8.533 8.533v68.267c0 4.713 3.821 8.533 8.533 8.533h42.667c4.713 0 8.533-3.821 8.533-8.533 0-4.713-3.82-8.533-8.533-8.533h-34.133v-17.067h34.133c4.713 0 8.533-3.821 8.533-8.533s-3.82-8.533-8.533-8.533h-34.133v-17.067h34.133c4.713 0 8.533-3.821 8.533-8.533s-3.82-8.533-8.533-8.533h-42.667z" fill-rule="evenodd"/><path id="Shape_70_" d="m409.6 358.4v-85.402c7.068-.11 13.361-4.499 15.906-11.093 2.587-6.675.749-14.255-4.608-19.004l-11.298-10.188v-44.979c0-9.426-7.641-17.067-17.067-17.067h-17.067c-9.035.036-16.476 7.107-16.973 16.128l-22.443-20.164c-6.697-6.035-16.872-6.035-23.569 0l-84.847 76.228c-5.357 4.749-7.195 12.329-4.608 19.004 2.532 6.611 8.828 11.019 15.906 11.136v85.401c0 9.426 7.641 17.067 17.067 17.067h136.533c9.427 0 17.068-7.641 17.068-17.067zm-34.133-170.667h17.067v29.645l-17.067-15.36zm-50.825-8.405 84.472 76.672h-84.847l-85.222-.444zm-8.909 179.072v-25.6c0-4.713 3.821-8.533 8.533-8.533s8.533 3.82 8.533 8.533v25.6zm34.134 0v-25.6c0-14.138-11.462-25.6-25.6-25.6s-25.6 11.462-25.6 25.6v25.6h-42.667v-85.333h136.533v85.333z"/></g></g></g></svg>